<?xml version='1.0' encoding='iso-8859-1'?>
<!DOCTYPE svg PUBLIC '-//W3C//DTD SVG 1.1//EN' 'http://www.w3.org/Graphics/SVG/1.1/DTD/svg11.dtd'>
<svg version="1.1" xmlns="http://www.w3.org/2000/svg" viewBox="0 0 512 512" xmlns:xlink="http://www.w3.org/1999/xlink" enable-background="new 0 0 512 512">
  <g>
    <path d="m96,112v0.008h320v-0.008c8.844,0 16-7.156 16-16 0-8.828-7.156-16-16-16-0.014,0-0.025,0.008-0.039,0.008h-319.922c-0.014,0-0.025-0.008-0.039-0.008-8.828,0-16,7.172-16,16 0,8.844 7.172,16 16,16z"/>
    <path d="m96,176.008h160c8.844,0 16-7.164 16-16 0-8.836-7.156-16-16-16h-160c-8.828,0-16,7.164-16,16 0,8.836 7.172,16 16,16z"/>
    <path d="m96,240.008h96c8.844,0 16-7.164 16-16 0-8.836-7.156-16-16-16h-96c-8.828,0-16,7.164-16,16 0,8.836 7.172,16 16,16z"/>
    <path d="m352,303.998c17.648,0 32-14.351 32-32 0-17.648-14.352-32-32-32s-32,14.352-32,32c0,17.649 14.352,32 32,32z"/>
    <path d="m496,0h-480c-8.837,0-16,7.163-16,16v320c0,8.8 7.2,16 16,16h256v144c0,6.063 3.422,11.602 8.844,14.313 5.422,2.711 11.898,2.117 16.758-1.516l54.398-40.797 54.398,40.797c2.828,2.117 6.203,3.203 9.602,3.203 2.438,0 4.891-0.555 7.156-1.688 5.422-2.711 8.844-8.25 8.844-14.313v-143.999h64c8.8,0 16-7.2 16-16v-320c0-8.8-7.2-16-16-16zm-205.641,247.936l-2.82-13.148 12.797-4.125c4.898-1.578 8.742-5.414 10.32-10.313l4.133-12.805 13.141,2.82c5.016,1.102 10.266-0.32 14.094-3.773l9.977-9.023 9.969,9.023c3.813,3.453 9.102,4.867 14.094,3.773l13.148-2.82 4.133,12.805c1.578,4.898 5.422,8.734 10.32,10.313l12.797,4.125-2.82,13.148c-1.086,5.031 0.32,10.274 3.773,14.094l9.016,9.969-9.016,9.969c-3.453,3.82-4.859,9.063-3.773,14.094l2.82,13.149-12.797,4.125c-4.898,1.578-8.742,5.414-10.32,10.313l-4.133,12.805-13.141-2.828c-5.047-1.117-10.297,0.313-14.102,3.774l-9.969,9.02-9.977-9.023c-2.969-2.688-6.805-4.133-10.734-4.133-1.125,0-2.25,0.117-3.367,0.359l-13.141,2.828-4.125-12.805c-1.578-4.899-5.422-8.734-10.32-10.313l-12.797-4.125 2.82-13.149c1.086-5.031-0.32-10.273-3.773-14.094l-9.016-9.969 9.016-9.969c3.453-3.818 4.859-9.06 3.773-14.091zm71.243,187.267c-2.844-2.133-6.227-3.203-9.602-3.203s-6.758,1.07-9.602,3.203l-38.398,28.797v-93.135c1.122,0.001 2.226,0.158 3.367-0.086l19.273-4.148 14.625,13.234c3.047,2.758 6.891,4.133 10.734,4.133 3.844,0 7.688-1.375 10.734-4.133l14.625-13.234 19.273,4.148c1.143,0.246 2.244,0.089 3.367,0.089v93.132l-38.396-28.797zm118.398-115.203h-29.133c0.002-1.121 0.158-2.225-0.086-3.361l-4.133-19.281 13.219-14.625c5.508-6.094 5.508-15.375 0-21.469l-13.219-14.625 4.133-19.281c1.727-8.031-2.914-16.07-10.734-18.586l-18.766-6.047-6.055-18.781c-2.516-7.813-10.563-12.445-18.586-10.727l-19.281,4.141-14.625-13.227c-6.094-5.516-15.375-5.516-21.469,0l-14.625,13.227-19.281-4.141c-8.008-1.703-16.063,2.914-18.586,10.727l-6.055,18.781-18.766,6.047c-7.82,2.516-12.461,10.555-10.734,18.586l4.133,19.281-13.219,14.625c-5.508,6.094-5.508,15.375 0,21.469l13.219,14.625-4.133,19.281c-0.244,1.137-0.087,2.24-0.085,3.361h-221.133v-288h448v288z"/>
  </g>
</svg>
